<?xml version="1.0" standalone="no"?>
<svg version="1.0" xmlns="http://www.w3.org/2000/svg" width="705.000000pt" height="497.000000pt"
    viewBox="0 0 705.000000 497.000000" preserveAspectRatio="xMidYMid meet">

    <g transform="translate(0.000000,497.000000) scale(0.100000,-0.100000)" fill="#000000"
        stroke="none">
        <path d="M3743 4353 c-17 -9 -39 -31 -49 -49 -16 -29 -17 -40 -6 -96 21 -116
20 -124 -23 -170 l-34 -38 -97 0 -97 0 -39 -42 c-32 -35 -38 -48 -38 -84 0
-44 23 -84 161 -277 31 -45 34 -56 38 -133 4 -103 -3 -114 -73 -114 -83 -1
-128 -15 -158 -52 -48 -56 -40 -87 54 -208 46 -58 93 -116 105 -130 33 -36 29
-52 -25 -102 -86 -80 -75 -82 -204 42 -122 119 -157 139 -210 120 -49 -16 -66
-47 -79 -146 -6 -49 -16 -95 -22 -102 -7 -9 -35 -12 -96 -10 l-86 3 1 35 c1
19 5 71 9 116 7 68 5 85 -10 107 -27 42 -72 37 -210 -24 -61 -26 -73 -28 -87
-11 -8 9 -27 68 -42 131 -15 63 -33 126 -41 140 -31 61 -90 89 -158 76 -54
-10 -92 -55 -115 -133 -28 -99 -73 -280 -83 -334 -4 -27 -11 -53 -14 -58 -11
-18 -45 -241 -45 -292 0 -93 39 -282 76 -365 8 -17 14 -34 14 -38 0 -17 103
-175 154 -236 101 -123 283 -245 442 -298 33 -11 108 -28 165 -37 57 -10 110
-22 117 -27 10 -8 12 -62 11 -240 l-3 -230 24 -19 c22 -17 38 -19 152 -16 84
2 131 7 140 16 6 6 14 40 16 75 5 82 -16 107 -87 107 -42 0 -49 3 -55 22 -8
33 -7 271 2 285 5 8 72 12 237 13 127 1 238 1 248 1 16 -1 17 -19 17 -228 0
-126 3 -238 6 -249 3 -12 17 -27 30 -33 26 -11 222 -15 260 -5 59 16 59 176 0
189 -12 3 -39 6 -61 7 l-40 3 -3 149 c-2 101 1 153 9 162 7 9 32 14 66 14 288
0 545 156 682 415 66 124 76 178 74 400 -1 110 -6 265 -12 345 -25 328 -25
331 -10 341 8 5 97 9 199 9 209 0 247 9 324 73 84 69 115 158 136 387 6 63 15
158 21 210 6 52 8 121 4 153 -12 114 -99 232 -212 288 l-48 24 -490 5 c-414 4
-494 7 -515 20 -14 8 -52 33 -85 55 -86 56 -95 62 -140 85 -47 23 -51 23 -92
3z m1332 -259 c78 -37 145 -114 169 -196 18 -60 18 -68 3 -188 -9 -69 -19
-162 -23 -207 -7 -91 -21 -116 -55 -95 -11 7 -39 19 -64 27 -44 15 -44 15
-112 -21 -37 -20 -73 -40 -79 -45 -20 -16 -59 -13 -94 6 -19 11 -61 35 -94 54
-77 44 -104 43 -164 -9 -73 -65 -72 -65 -138 -16 -90 66 -97 66 -171 -7 -35
-34 -71 -74 -79 -89 -13 -25 -13 -28 7 -38 18 -10 27 -4 82 54 34 36 67 66 73
66 5 0 39 -20 74 -45 35 -25 73 -45 85 -45 11 0 43 20 70 45 28 25 60 48 72
51 20 5 66 -17 163 -77 62 -38 81 -36 187 27 l77 45 40 -16 c74 -30 91 -40 94
-58 5 -26 -35 -97 -75 -134 -58 -54 -109 -63 -344 -63 -153 0 -209 -3 -217
-12 -10 -14 -2 -222 19 -478 7 -80 13 -215 13 -300 1 -136 -2 -164 -22 -226
-60 -185 -210 -355 -382 -432 -118 -53 -120 -53 -685 -62 -559 -9 -679 -4
-795 31 -301 91 -530 321 -626 627 -25 78 -28 102 -28 242 -1 154 4 192 50
365 7 28 30 119 51 204 32 130 42 157 64 173 53 40 105 -6 123 -107 16 -86 64
-232 89 -270 44 -66 83 -100 187 -159 33 -19 52 -20 375 -21 317 0 344 1 385
20 87 38 171 112 208 183 51 98 54 127 50 546 l-3 391 26 55 c48 100 127 173
229 211 40 15 104 17 587 18 l542 1 56 -26z" />
        <path d="M3987 3843 c-59 -30 -42 -115 25 -121 29 -3 40 2 57 25 46 58 -16
131 -82 96z" />
        <path d="M920 1314 c-32 -38 -13 -39 698 -36 660 2 682 3 682 21 0 10 -7 22
-16 25 -9 3 -316 6 -684 6 -591 0 -669 -2 -680 -16z" />
        <path d="M4171 1321 c-8 -5 -11 -16 -8 -25 6 -14 105 -16 1038 -18 567 -2
1035 0 1041 3 5 4 8 15 6 25 -3 18 -34 19 -1033 21 -586 2 -1036 -1 -1044 -6z" />
        <path d="M1957 983 c-4 -3 -7 -14 -7 -24 0 -17 20 -19 351 -21 193 -2 355 0
361 3 5 4 8 15 6 25 -3 18 -20 19 -354 22 -193 1 -353 -1 -357 -5z" />
        <path d="M4953 813 c-3 -7 -3 -20 1 -28 5 -13 46 -15 290 -15 156 0 291 3 300
6 19 7 22 44 4 44 -443 6 -591 4 -595 -7z" />
        <path d="M922 727 c-9 -10 -9 -18 1 -30 11 -16 42 -17 332 -15 l320 3 0 25 0
25 -321 3 c-263 2 -323 0 -332 -11z" />
    </g>
</svg>
